<?xml version="1.0" standalone="no"?>
<!DOCTYPE svg PUBLIC "-//W3C//DTD SVG 20010904//EN"
 "http://www.w3.org/TR/2001/REC-SVG-20010904/DTD/svg10.dtd">
<svg version="1.0" xmlns="http://www.w3.org/2000/svg"
 width="100.000000pt" height="100.000000pt" viewBox="0 0 100.000000 100.000000"
 preserveAspectRatio="xMidYMid meet">
<metadata>
Created by potrace 1.14, written by Peter Selinger 2001-2017
</metadata>
<g transform="translate(0.000000,100.000000) scale(0.100000,-0.100000)"
fill="#000000" stroke="none">
<path d="M364 979 c-91 -28 -152 -66 -219 -134 -102 -103 -151 -235 -141 -374
7 -99 41 -199 91 -266 15 -19 16 -19 47 12 l32 32 -29 53 c-120 221 -20 487
219 581 38 15 75 20 141 20 80 1 98 -3 157 -30 l66 -31 32 33 31 32 -38 23
c-109 65 -273 86 -389 49z"/>
<path d="M792 858 c-17 -17 -15 -55 4 -62 27 -11 43 -7 54 14 22 40 -26 80
-58 48z"/>
<path d="M855 780 l-28 -30 26 -48 c146 -268 -27 -586 -329 -606 -70 -5 -150
11 -213 43 l-38 20 -32 -33 -32 -33 34 -20 c199 -118 442 -87 607 77 143 143
187 345 115 525 -27 66 -65 134 -76 135 -3 0 -18 -13 -34 -30z"/>
<path d="M249 771 c-1 -3 -2 -35 -3 -71 l-2 -65 118 -5 118 -5 -128 -133 -128
-133 0 -67 1 -67 276 -2 276 -2 -1 72 -1 72 -144 5 -144 5 137 140 136 140 -2
60 -3 60 -252 1 c-139 0 -254 -2 -254 -5z"/>
<path d="M150 191 c-22 -43 29 -83 60 -47 6 8 10 25 8 38 -4 32 -52 38 -68 9z"/>
</g>
</svg>
